<svg viewBox="0 0 40 40" xmlns="http://www.w3.org/2000/svg">
  <path d="M40 20c0 2.22-.37 4.4-1.08 6.5-.3-1.3-.76-2.8-1.47-4.38-1.83-4.06-5.7-9.45-13.8-12.7 1.48-2.73 3.58-5.07 6.13-6.86C36.1 6.1 40 12.72 40 20zm-17.36-8.4c13.44 5.3 14.38 16.73 14.43 18.8-1.14 1.9-2.6 3.6-4.32 5-.47-4.02-2-7.8-4.5-11.04-1.9-2.43-4.3-4.46-6.98-5.94.05-2.36.5-4.65 1.37-6.82zm4.5 15.3c2 3 3.16 6.46 3.35 10.1-3.2 1.96-6.8 3-10.5 3-6.1 0-11.8-2.76-15.5-7.37 1.7.43 3.9.8 6.4.8 4.8 0 10.7-1.4 16.2-6.52zM20 0c2.56 0 5.02.48 7.35 1.4-2.75 2.2-4.95 4.97-6.45 8.18-1.3 2.84-1.98 5.87-2.03 9.02-2.45 1.52-5.22 2.5-8.08 2.84-.6-3.22-1.7-13.78 7.5-21.37C18.9.03 19.4 0 20 0zm.22 20.57c2.05 1.14 3.9 2.65 5.45 4.43-9.98 9.48-21.18 5.36-23.3 4.45-1.15-2.18-1.9-4.57-2.2-7.03 2.6 1.03 5.35 1.56 8.2 1.56.53 0 1.05-.02 1.56-.06 3.65-.24 7.2-1.4 10.3-3.35zM8.42 21.6h-.06c-2.92 0-5.7-.62-8.36-1.84C.1 10.9 5.9 3.4 14.08.9 7.2 8.6 7.86 18.06 8.4 21.6z" fill="#fff" fill-rule="evenodd"/>
</svg>
