<?xml version="1.0" encoding="UTF-8"?>
<svg width="26px" height="26px" viewBox="0 0 26 26" version="1.1" xmlns="http://www.w3.org/2000/svg" xmlns:xlink="http://www.w3.org/1999/xlink">
    <!-- Generator: Sketch 48.2 (47327) - http://www.bohemiancoding.com/sketch -->
    <title>icons/goal_white</title>
    <desc>Created with Sketch.</desc>
    <defs></defs>
    <g id="Apple-TV-Copy-2" stroke="none" stroke-width="1" fill="none" fill-rule="evenodd" transform="translate(-213.000000, -997.000000)">
        <g id="icons/goal_white" transform="translate(206.000000, 990.000000)">
            <g>
                <g id="goal" transform="translate(7.000000, 7.000000)" fill="#FFFFFF" fill-rule="nonzero">
                    <path d="M23.7882192,12.9964384 L22.2780822,10.9021918 L22.6556164,8.45534247 C22.7305259,8.12936259 22.6164321,7.78889899 22.3602268,7.57388001 C22.1040215,7.35886103 21.7489272,7.30556087 21.4408854,7.43588556 C21.1328435,7.56621025 20.9238215,7.8581737 20.899726,8.19178082 L20.5720548,10.3287671 L18.249863,10.5816438 L13.890411,7.40109589 L13.890411,5.0539726 L16.1484932,4.16712329 C16.4475196,4.05133008 16.6620564,3.78480406 16.7112898,3.467943 C16.7605231,3.15108193 16.6369732,2.83202456 16.3871802,2.6309567 C16.1373871,2.42988884 15.7993004,2.37735748 15.500274,2.49315068 L13.0071233,3.47260274 L10.4747945,2.49315068 C10.1762961,2.36385315 9.83104459,2.40762633 9.5742586,2.60732634 C9.3174726,2.80702635 9.19002605,3.13086596 9.24183372,3.45201251 C9.29364138,3.77315906 9.5164568,4.04049407 9.8230137,4.14931507 L12.109589,5.0539726 L12.109589,7.40109589 L7.75369863,10.5673973 L5.42794521,10.3287671 L5.0539726,7.98876712 C4.97627445,7.50290786 4.51942091,7.1720279 4.03356165,7.24972604 C3.54770238,7.32742418 3.21682241,7.78427772 3.29452055,8.27013699 L3.72191781,10.9342466 L2.17972603,13.1780822 C1.99051452,13.4413152 1.95931819,13.7865827 2.09828217,14.0794677 C2.23724615,14.3723527 2.5244094,14.5665694 2.84797563,14.5865067 C3.17154186,14.6064441 3.4803766,14.4489514 3.65424658,14.1753425 L5.07890411,12.0383562 L7.31917808,12.2805479 L8.9290411,17.2383562 L7.86054795,19.1367123 L5.69863014,18.72 C5.3868792,18.6563773 5.06486717,18.7639047 4.85389287,19.0020777 C4.64291858,19.2402506 4.57503403,19.5728849 4.67581068,19.8746804 C4.77658733,20.176476 5.03071481,20.4015829 5.34246575,20.4652055 L7.83561644,20.9745205 L9.23534247,22.929863 C9.52154703,23.3301559 10.0780632,23.4226429 10.4783561,23.1364383 C10.8786491,22.8502338 10.971136,22.2937176 10.6849315,21.8934247 L9.40986301,20.1126027 L10.449863,18.2534247 L15.5679452,18.2534247 L16.6079452,20.1090411 L15.1832877,22.0964384 C14.9949647,22.3560187 14.9594315,22.69635 15.0900732,22.9892327 C15.2207149,23.2821154 15.4976838,23.4830537 15.8166485,23.516356 C16.1356132,23.5496583 16.4481153,23.4102653 16.6364384,23.1506849 L18.1643836,20.9745205 L20.8284932,20.4260274 C21.3104183,20.3276753 21.6213658,19.8572677 21.5230137,19.3753425 C21.4246616,18.8934173 20.954254,18.5824698 20.4723288,18.6808219 L18.1038356,19.1652055 L17.0353425,17.2668493 L18.6452055,12.3090411 L20.9032877,12.0632877 L22.3279452,14.0328767 C22.5137233,14.2911846 22.823195,14.4307596 23.1397853,14.399025 C23.4563755,14.3672904 23.7319868,14.1690675 23.862799,13.879025 C23.9936111,13.5889824 23.9597507,13.2511846 23.7739726,12.9928767 L23.7882192,12.9964384 Z M13,8.95753425 L16.9534247,11.8282192 L15.4432877,16.4583562 L10.5567123,16.4583562 L9.04657534,11.8282192 L13,8.95753425 Z" id="Shape"></path>
                    <path d="M13,0 C5.82029825,-4.39629938e-16 8.79259876e-16,5.82029825 0,13 C-8.79259876e-16,20.1797017 5.82029825,26 13,26 C20.1797017,26 26,20.1797017 26,13 C25.9921483,5.82355305 20.176447,0.00785169955 13,0 Z M13,24.2191781 C6.80381904,24.2191781 1.78082192,19.196181 1.78082192,13 C1.78082192,6.80381904 6.80381904,1.78082192 13,1.78082192 C19.196181,1.78082192 24.2191781,6.80381904 24.2191781,13 C24.211329,19.1929268 19.1929268,24.211329 13,24.2191781 Z" id="Shape"></path>
                </g>
                <rect id="Rectangle-5" x="0" y="0" width="40" height="40"></rect>
            </g>
        </g>
    </g>
</svg>